<?xml version="1.0" encoding="UTF-8"?> <svg xmlns="http://www.w3.org/2000/svg" width="511" height="512" viewBox="0 0 511 512" fill="none"><path d="M255.224 0C114.571 0 0 114.859 0 256C0 324.867 26.5706 389.354 74.8365 437.536C122.859 485.475 186.969 512 255.224 512C323.723 512 388.077 485.475 436.1 437.536C484.122 389.354 510.449 325.11 510.449 256C510.449 187.62 484.122 123.376 436.1 74.9506C387.834 26.7681 323.723 0 255.224 0ZM123.102 389.354C91.6565 357.719 72.8864 316.837 68.9861 272.548C158.449 237.992 215.246 225.582 255.956 231.179C263.756 232.395 267.9 233.612 270.094 234.586C270.094 239.696 268.144 249.916 266.925 256.973C262.05 282.038 255.468 316.35 273.751 350.905C288.133 378.16 314.704 399.087 355.169 415.148C325.673 433.886 291.302 443.863 254.981 443.863C205.252 443.863 158.449 424.395 123.102 389.354ZM410.26 361.612C369.064 350.175 342.737 335.331 333.961 318.783C326.892 305.643 330.305 288.365 333.961 269.871C338.349 247.24 343.712 219.011 326.648 194.92C314.704 178.129 294.715 167.909 265.706 163.772C218.172 156.958 161.618 166.692 78.0055 196.624C102.626 122.16 172.831 68.1369 255.224 68.1369C305.44 68.1369 352.487 87.6046 387.59 123.133C422.692 158.418 442.194 205.871 442.194 256C442.194 294.449 430.981 330.951 410.26 361.612Z" fill="#2139E1"></path></svg> 